HIERARCHY
ROOT pelvis
{
  OFFSET 0 100 0
  CHANNELS 6 Xposition Yposition Zposition Zrotation Xrotation Yrotation
  JOINT pelvis_right_femur
  {
    OFFSET -10.78128 -3.44521 -0.5502486
    CHANNELS 3 Zrotation Xrotation Yrotation
    JOINT right_femur_tibia
    {
      OFFSET -0.8047443 -44.0398 -0.1307829
      CHANNELS 3 Zrotation Xrotation Yrotation
      JOINT right_tibia_foot
      {
        OFFSET 3.006224 -47.83518 -5
        CHANNELS 3 Zrotation Xrotation Yrotation
        End Site
        {
          OFFSET 0 -5 15
        }
      }
    }
  }
  JOINT pelvis_left_femur
  {
    OFFSET 10.78128 -3.44521 -0.5502486
    CHANNELS 3 Zrotation Xrotation Yrotation
    JOINT left_femur_tibia
    {
      OFFSET 0.8047443 -44.0398 -0.1307829
      CHANNELS 3 Zrotation Xrotation Yrotation
      JOINT left_tibia_foot
      {
        OFFSET -4.370144 -48.10324 -4.275266
        CHANNELS 3 Zrotation Xrotation Yrotation
        End Site
        {
          OFFSET 0 -5 15
        }
      }
    }
  }
  JOINT pelvis_spine1
  {
    OFFSET 0 6.468898 -3.129235
    CHANNELS 3 Zrotation Xrotation Yrotation
    JOINT spine1
    {
      OFFSET 0 23.15396 4.99043
      CHANNELS 3 Zrotation Xrotation Yrotation
      JOINT spine2
      {
        OFFSET 0 20.79997 -5.064912
        CHANNELS 3 Zrotation Xrotation Yrotation
        JOINT neck
        {
          OFFSET 0 14.38658 9.616178
          CHANNELS 3 Zrotation Xrotation Yrotation
          End Site
          {
            OFFSET 0 20 0
          }
        }
      }
      JOINT right_manubrium
      {
        OFFSET -5.722621 16.35077 3.967754
        CHANNELS 3 Zrotation Xrotation Yrotation
        JOINT right_clavicle
        {
          OFFSET -13.16364 1.694482 -4.693211
          CHANNELS 3 Zrotation Xrotation Yrotation
          JOINT right_humerus
          {
            OFFSET -28.5034 -0.3100689 -2.792744
            CHANNELS 3 Zrotation Xrotation Yrotation
            JOINT right_radius
            {
              OFFSET -25.15693 0.02248979 -1.271978
              CHANNELS 3 Zrotation Xrotation Yrotation
              End Site
              {
                OFFSET -15 0 0
              }
            }
          }
        }
      }
      JOINT left_manubrium
      {
        OFFSET 5.722621 16.35077 3.967754
        CHANNELS 3 Zrotation Xrotation Yrotation
        JOINT left_clavicle
        {
          OFFSET 13.16364 1.694482 -4.693211
          CHANNELS 3 Zrotation Xrotation Yrotation
          JOINT left_humerus
          {
            OFFSET 29.39168 -1.063119 -2.237045
            CHANNELS 3 Zrotation Xrotation Yrotation
            JOINT left_radius
            {
              OFFSET 24.59957 -0.9528479 0.9047498
              CHANNELS 3 Zrotation Xrotation Yrotation
              End Site
              {
                OFFSET 15 -0 -0
              }
            }
          }
        }
      }
    }
  }
}
MOTION
Frames: 18
Frame Time: 0.0416666666667
35.19003 104.3958 253.1657 2.86567 -7.710747 5.255268 -0.4899425 13.38944 5.558699 -7.171163e-07 38.36744 8.29221e-07 3.25678 -10.22926 -4.220073 -3.335152 -14.82784 -8.565818 -3.340663e-07 19.66789 -1.19818e-06 -6.199407 -9.87836 19.02105 -3.298664 0.1093897 6.556907 -0.5467734 9.228883 -3.811582 1.585403 23.09572 6.294012 2.223726 -16.96487 7.754013 2.879888 -19.61921 11.05976 82.77944 27.46619 -8.913999 4.230374e-09 -5.22482e-09 21.44443 -26.2372 13.30899 15.32881 3.523234 -14.37423 -2.762305 -94.02757 26.61817 23.96572 -2.521939e-08 1.89792e-07 -9.440573 -5.395265 5.512213 19.52877
36.61072 104.9838 258.9997 3.032525 -8.035767 5.694627 -0.8731802 11.16891 5.702472 -7.394517e-07 44.59908 6.582937e-07 3.009262 -7.84793 -4.753131 -4.421842 -11.27251 -9.869271 1.787015e-07 20.59765 -1.922225e-06 -6.073258 -10.59745 19.13078 -3.518528 0.09315835 5.976322 -0.5936021 9.144472 -3.864156 1.702596 23.32983 6.476383 2.305784 -17.01586 8.077486 3.170781 -18.70764 10.81601 83.18444 27.49108 -9.587269 5.35774e-08 5.347239e-08 20.05038 -25.42238 12.93088 14.64314 3.431322 -14.16303 -2.831686 -93.31322 27.29755 22.65577 -1.234262e-07 5.033663e-08 -8.964475 -5.188748 5.796497 19.36916
37.99198 105.8612 264.6483 3.195464 -8.249174 6.29301 -1.172368 7.916024 5.709298 -5.795063e-07 49.63069 3.592205e-07 2.791322 -5.977266 -5.384993 -5.416841 -6.928084 -11.22206 6.176305e-07 20.50975 -2.333495e-06 -5.910558 -11.81811 19.26228 -3.74326 0.1119248 5.279531 -0.5649968 8.930542 -4.012724 1.841851 23.61592 6.660464 2.355057 -17.09581 8.469585 3.396725 -17.70718 10.51628 83.86576 27.50526 -10.54901 8.925881e-08 8.612739e-08 18.52336 -24.42017 12.53001 13.82674 3.506398 -14.10291 -2.892047 -92.48141 28.09491 20.80154 -2.036036e-07 -6.765077e-08 -9.000645 -4.896293 6.223998 19.06754
39.30461 106.8714 270.0936 3.29143 -8.270194 6.995247 -1.254645 3.751588 5.544195 -2.264663e-07 52.38676 -7.600996e-08 2.474466 -4.818156 -6.023636 -6.163559 -2.124346 -12.44432 9.328688e-07 19.9181 -2.364119e-06 -5.702509 -13.30657 19.3044 -3.896991 0.1496128 4.52239 -0.4285346 8.626549 -4.276055 1.977928 23.86151 6.801726 2.366926 -17.2181 8.847936 3.523053 -16.67587 10.19268 84.64112 27.50691 -11.78742 1.075133e-07 9.086146e-08 16.84908 -23.1571 12.1175 12.83953 3.732368 -14.27174 -2.950587 -91.35812 28.85432 18.45689 -2.625855e-07 -1.535195e-07 -9.686916 -4.436207 6.820003 18.49303
40.54959 107.7931 275.3688 3.316911 -8.083337 7.748706 -1.173674 -0.6695249 5.162195 1.992212e-07 52.29731 -5.035656e-07 2.129929 -4.442112 -6.542686 -6.551982 2.32038 -13.31249 1.025643e-06 18.25823 -1.954269e-06 -5.417519 -14.90903 19.2279 -3.968031 0.18501 3.82693 -0.2174715 8.298839 -4.617765 2.074564 23.9904 6.880055 2.338936 -17.34291 9.128682 3.474757 -15.849 9.906538 85.35998 27.4139 -13.0531 9.904439e-08 6.650112e-08 15.38599 -21.98831 11.76275 11.93561 4.094963 -14.67896 -3.039091 -90.04325 29.32507 15.99601 -2.683937e-07 -1.840717e-07 -10.96631 -3.861899 7.464443 17.6911
41.7256 108.4167 280.5585 3.276775 -7.749265 8.502206 -0.9545031 -5.254078 4.587435 5.8701e-07 49.27155 -8.128572e-07 1.878979 -4.806218 -7.01073 -6.606078 6.313653 -13.72193 9.104814e-07 15.97074 -1.116999e-06 -5.203143 -16.547 18.94414 -3.946147 0.2376129 3.213847 0.05577985 7.969556 -5.040141 2.131996 24.01159 6.896144 2.268597 -17.41211 9.297844 3.248481 -15.19466 9.679997 86.11528 27.19185 -14.40719 6.215901e-08 1.607675e-08 14.11874 -21.08993 11.56504 11.18208 4.585365 -15.33823 -3.17872 -88.55454 29.46599 13.36308 -2.145504e-07 -1.586099e-07 -12.94121 -3.249139 8.022985 16.75417
42.81775 108.6117 285.7161 3.163388 -7.344163 9.202858 -0.6079308 -9.827528 3.91162 9.05007e-07 43.97681 -9.987568e-07 1.607753 -5.758842 -7.437531 -6.418552 9.8791 -13.78941 7.011095e-07 13.74681 -1.717069e-08 -5.085306 -18.06723 18.48531 -3.822564 0.3105411 2.667186 0.3744821 7.64068 -5.501298 2.16857 23.94987 6.838262 2.157853 -17.42768 9.36601 2.878055 -14.64119 9.490697 86.81342 26.84067 -15.78735 6.170154e-09 -5.136279e-08 12.92883 -20.30095 11.45501 10.47719 5.138088 -16.16029 -3.345254 -86.90288 29.32742 10.62145 -1.279414e-07 -9.908859e-08 -15.35323 -2.583575 8.537651 15.67927
43.82684 108.3255 290.9486 3.024832 -6.96383 9.821042 -0.1956021 -14.06884 3.221083 1.112433e-06 37.2903 -1.034655e-06 1.488215 -6.99504 -7.879166 -6.080803 12.8475 -13.45898 4.144735e-07 12.23575 1.202161e-06 -5.206956 -19.34734 17.82397 -3.627172 0.4052834 2.237171 0.7004944 7.390334 -5.991521 2.178819 23.87019 6.75146 2.037427 -17.38439 9.351435 2.441114 -14.20012 9.396459 87.72434 26.4138 -17.2689 -6.139559e-08 -1.227418e-07 11.87427 -19.89754 11.56137 9.960255 5.701089 -17.12579 -3.558467 -85.44225 28.94506 7.991996 -9.998395e-09 -1.958036e-08 -18.13316 -2.008286 8.849506 14.69834
44.72158 107.5897 296.2001 2.83112 -6.632085 10.31858 0.2931073 -17.86933 2.651826 1.325363e-06 30.38711 -1.082552e-06 1.11798 -8.52497 -8.260929 -5.694068 15.45706 -13.19238 1.982703e-07 11.45956 2.353499e-06 -5.336626 -20.33672 17.22629 -3.369346 0.5159282 1.830544 1.023087 7.098334 -6.401414 2.213941 23.78155 6.591707 1.88739 -17.33128 9.308962 1.979264 -13.74391 9.26269 88.29032 25.9458 -18.50528 -1.25326e-07 -1.949488e-07 10.77878 -19.18014 11.5218 9.288076 6.197417 -17.96521 -3.701664 -83.94062 28.55015 5.514953 7.335214e-08 5.152108e-08 -20.56716 -1.3702 9.271009 13.62516
45.49186 106.5361 301.4601 2.641414 -6.423901 10.69797 0.8005633 -20.95114 2.267898 1.49082e-06 24.55475 -1.127879e-06 0.6448901 -9.817124 -8.611136 -5.357502 17.63028 -12.96814 3.679691e-08 11.98654 3.24973e-06 -5.532679 -20.92354 16.68036 -3.095783 0.6209155 1.486237 1.301472 6.871096 -6.729103 2.258919 23.73045 6.421971 1.755875 -17.29186 9.2571 1.596481 -13.28866 9.15046 88.76222 25.52544 -19.58589 -1.734323e-07 -2.495804e-07 9.6761 -18.41077 11.43414 8.59849 6.558757 -18.66002 -3.814375 -82.68013 28.18867 3.429121 1.161927e-07 9.876122e-08 -22.53316 -0.7780596 9.668736 12.66076
46.14836 105.3613 306.7235 2.500293 -6.387671 10.97911 1.275373 -23.02814 2.114985 1.596108e-06 20.78997 -1.192791e-06 0.13444 -10.59152 -8.915773 -5.138107 19.25708 -12.83552 -6.420738e-08 13.91848 3.758716e-06 -5.779327 -21.05563 16.2534 -2.847742 0.7093376 1.225423 1.500859 6.746914 -6.94384 2.313368 23.74889 6.274417 1.665681 -17.27858 9.218231 1.354712 -12.85476 9.072462 89.18271 25.20359 -20.45023 -1.966199e-07 -2.772425e-07 8.635026 -17.68533 11.3086 7.961869 6.735544 -19.13329 -3.898847 -81.81655 27.95439 1.929395 1.067311e-07 1.133537e-07 -23.79888 -0.3051299 10.00088 11.93299
46.74515 104.3221 312.0566 2.506279 -6.655199 11.22716 1.578889 -23.85439 2.15853 1.610565e-06 20.38913 -1.280473e-06 -0.1868501 -10.31267 -9.220846 -5.139251 20.32216 -12.73517 -9.287875e-08 17.347 3.738329e-06 -6.150221 -20.75753 15.96436 -2.690971 0.7801157 1.070135 1.565547 6.824435 -7.042524 2.373054 23.93358 6.213918 1.653471 -17.28493 9.228949 1.296811 -12.49118 9.083848 89.96978 24.93999 -21.18058 -1.869217e-07 -2.643769e-07 7.753755 -17.42646 11.28134 7.598417 6.691364 -19.3887 -4.028804 -81.70903 27.90775 1.195061 5.21417e-08 8.469302e-08 -24.28604 -0.1027355 10.12716 11.67648
47.31179 103.646 317.435 2.570342 -7.114338 11.43671 1.874043 -23.29308 2.413314 1.568695e-06 22.1985 -1.406903e-06 -0.6504277 -9.519621 -9.386163 -5.229811 20.51881 -12.72296 6.844605e-09 22.23572 3.252958e-06 -6.486726 -19.86903 15.87687 -2.547524 0.8248646 1.034032 1.536422 7.029417 -6.984901 2.442356 24.18475 6.151935 1.680459 -17.33551 9.230809 1.353143 -12.23381 9.128042 90.59174 24.75737 -21.53615 -1.476311e-07 -2.238648e-07 7.02381 -17.17716 11.15999 7.300224 6.420328 -19.37107 -4.129887 -82.04423 28.00334 1.283881 -6.541651e-08 2.329938e-08 -23.83271 0.00479395 10.256 11.62462
47.84037 103.4594 322.8068 2.605653 -7.667919 11.54721 2.341675 -21.43571 2.892341 1.505634e-06 24.37737 -1.557445e-06 -1.408447 -9.006546 -9.390884 -5.245778 19.61874 -12.72606 2.37927e-07 28.72887 2.496618e-06 -6.82444 -18.3304 15.97087 -2.33182 0.8713269 1.14471 1.47282 7.282131 -6.784187 2.529116 24.46778 6.01626 1.701922 -17.43402 9.186595 1.448751 -12.10182 9.189427 90.9098 24.67152 -21.51565 -9.148319e-08 -1.761529e-07 6.44991 -16.69031 10.91328 6.939329 5.983266 -19.13826 -4.138771 -82.72934 28.22277 2.099597 -2.446395e-07 -4.973277e-08 -22.663 0.09302337 10.48301 11.64116
48.34602 103.784 328.1763 2.638243 -8.322066 11.51503 2.879474 -18.04537 3.507465 1.418314e-06 26.38971 -1.680963e-06 -2.235617 -9.081876 -9.258655 -5.130777 17.23185 -12.59543 5.938051e-07 36.01161 1.567799e-06 -7.243385 -16.27762 16.28563 -2.071225 0.944411 1.472362 1.355932 7.577927 -6.438602 2.626874 24.82643 5.819936 1.706427 -17.54561 9.102957 1.533518 -12.24573 9.309991 91.14737 24.6422 -21.07132 -3.147365e-08 -1.32073e-07 6.354564 -16.33283 10.7 6.749336 5.443944 -18.72737 -4.05894 -84.11433 28.55281 3.810706 -4.50653e-07 -1.148615e-07 -20.92002 0.008779443 10.68713 11.91195
48.77756 104.4838 333.3445 2.531608 -8.862138 11.25946 3.480609 -14.00899 4.102772 1.436287e-06 27.01574 -1.870506e-06 -3.601072 -10.34815 -8.922193 -4.812837 14.06493 -12.73818 1.137675e-06 41.87212 6.77192e-07 -7.334561 -14.16532 16.96423 -1.745123 1.035725 1.821203 1.253459 7.638925 -5.919978 2.771408 25.08721 5.461668 1.611112 -17.65779 8.982237 1.456885 -12.53588 9.271841 90.33247 24.57996 -19.84391 1.649428e-08 -1.196275e-07 6.546664 -15.23149 10.03346 6.314388 4.918539 -18.02757 -3.778616 -85.20676 28.92327 5.816008 -6.904328e-07 -1.630044e-07 -18.46121 0.1352985 11.29199 11.83666
49.18814 105.442 338.4587 2.446049 -9.380388 10.81453 3.932556 -9.469105 4.519579 1.364791e-06 26.89506 -1.905402e-06 -4.511319 -11.68397 -8.565927 -4.408664 10.07702 -12.43069 1.561274e-06 46.82698 -8.870872e-08 -7.561717 -12.10154 17.55043 -1.458565 1.119795 2.346153 1.117294 7.830274 -5.445394 2.854832 25.34695 5.159373 1.541062 -17.73875 8.808967 1.333518 -13.15285 9.384518 89.96938 24.49223 -18.65184 4.816322e-08 -1.101293e-07 7.289031 -14.97676 9.769286 6.377769 4.449852 -17.49779 -3.580483 -86.90093 29.05588 8.284141 -8.540622e-07 -1.818596e-07 -16.38715 0.00573678 11.57913 12.08875
49.59138 106.4831 343.4589 2.2867 -9.692878 10.17862 4.245368 -4.853374 4.724116 1.301742e-06 25.92508 -1.880265e-06 -5.444157 -13.33859 -8.028231 -3.911682 5.690592 -12.13547 1.843815e-06 49.08212 -6.004478e-07 -7.45401 -10.35172 18.24176 -1.218608 1.153084 2.906674 0.9806995 7.957028 -4.950747 2.897103 25.45032 4.845665 1.451148 -17.83186 8.587978 1.096198 -14.03687 9.465512 89.10527 24.37483 -17.05439 6.166296e-08 -1.172332e-07 8.478588 -14.75673 9.420835 6.586406 4.068181 -16.95427 -3.354813 -88.42706 28.9544 10.98703 -9.66003e-07 -1.734502e-07 -14.23773 -0.03338578 11.9566 12.17181
